PathFileType	4	(X/Y/Z)	Patient4_TMGait_0pt5_01_left_33.trc.trc
DataRate	CameraRate	NumFrames	NumMarkers	Units	OrigDataRate	OrigDataStartFrame	OrigNumFrames
81.871345029240	81.871345029240	5	33	mm	81.871345029240	18	       141
Frame#	Time	L.ASIS			Sacral			L.Shoulder			Chest			R.Shoulder			Neck			R.ASIS			R.Thigh.Superior			R.Thigh.Lateral			R.Thigh.Inferior			R.Patella			L.Thigh.Superior			L.Thigh.Lateral			L.Thigh.Inferior			L.Patella			L.Shank.Superior			L.Shank.Lateral			L.Shank.Inferior			R.Shank.Superior			R.Shank.Lateral			R.Shank.Inferior			R.Heel			R.Midfoot.Superior			R.Midfoot.Lateral			R.Toe			L.Heel			L.Midfoot.Lateral			L.Midfoot.Superior			L.Toe			L.Elbow			L.Wrist			R.Elbow			R.Wrist			
		X1	Y1	Z1	X2	Y2	Z2	X3	Y3	Z3	X4	Y4	Z4	X5	Y5	Z5	X6	Y6	Z6	X7	Y7	Z7	X8	Y8	Z8	X9	Y9	Z9	X10	Y10	Z10	X11	Y11	Z11	X12	Y12	Z12	X13	Y13	Z13	X14	Y14	Z14	X15	Y15	Z15	X16	Y16	Z16	X17	Y17	Z17	X18	Y18	Z18	X19	Y19	Z19	X20	Y20	Z20	X21	Y21	Z21	X22	Y22	Z22	X23	Y23	Z23	X24	Y24	Z24	X25	Y25	Z25	X26	Y26	Z26	X27	Y27	Z27	X28	Y28	Z28	X29	Y29	Z29	X30	Y30	Z30	X31	Y31	Z31	X32	Y32	Z32	X33	Y33	Z33	

18	44.237642857143	777.569574329996	957.210215229401	355.746370245137	588.500033494221	1015.187206087019	541.186640552058	761.412575405452	1419.956184865963	321.281598221780	883.795038061862	1349.539390512771	467.168677648734	836.078521062022	1440.286620884714	646.787676894850	794.781301250189	1488.539141615378	465.030946258403	821.865346563142	934.543007476519	628.087469454916	838.517395808218	728.108123858531	594.110495248226	751.836293227100	628.632981625123	662.068520180261	810.249614182133	569.180705221514	573.053493058550	799.677413934961	480.465902675289	578.429197467165	857.644319607848	785.025643567027	391.647546091567	820.212968970701	658.313040113706	310.491582848462	918.327987073319	599.452418302396	380.701408470940	948.668491875500	532.561326411857	374.562157687449	928.702316955747	458.587545263468	360.245428069304	860.833036332979	333.379089107615	298.984318348658	939.403595395995	228.737538612207	356.887950687106	763.819535899013	394.665272578527	588.009753282356	687.498372147732	298.223485556384	654.428491136027	712.750981208119	200.885533119770	588.363202948226	562.066481423913	43.077379387024	567.589203017414	734.506596512506	96.354203601031	595.860202819309	647.883264963383	36.422975467554	639.657576025450	855.435420149130	43.682798483901	621.090304830379	846.829518838493	49.043539169616	384.416977150428	925.159022012765	53.785241946958	308.157685248077	995.575182413323	130.753134814333	332.857193491382	1130.425827585616	101.139252681012	313.257210255192	655.316831596749	1071.377765386874	236.919139655367	680.939017851227	813.638383722719	207.723900192271	962.302949088910	1128.000921579606	759.663840146268	1176.714169841471	1165.217102834751	633.848793740543	
19	44.249857142857	779.275590458311	956.073977011079	354.791960272036	590.418534723393	1013.994279688079	540.097052147831	762.088355716045	1419.068705759098	319.986752614941	884.509196970794	1348.977188593006	465.972136075624	836.445314315241	1439.620158013828	645.495565898018	795.182111338714	1487.785958449226	463.767126205024	823.399953227641	933.749487894347	627.167531600993	838.784759239383	726.908970521344	593.175134615005	751.361490209219	627.646983580655	661.189710499528	809.351861149787	567.771078707246	572.347923821822	798.010981663856	479.052888578228	577.753500791318	857.610704270081	781.390607513127	390.116167550449	817.552871223064	655.291960263253	309.304468912456	914.702661825011	595.211522093947	379.505075523361	944.038436592905	529.044867606890	373.626270032989	925.338378369387	455.644166409027	359.163812564022	859.334053804262	329.004185571989	299.043981535266	940.197599815451	226.103584562497	356.946064423819	761.276299516442	393.535335310365	587.343750073541	683.986416344003	297.913008120952	653.908453293470	708.013477042786	200.244783898170	587.965343991796	555.970845701914	43.143213796710	567.564374178818	728.446510413038	96.233504648684	595.760052359073	641.760938518306	36.421451618453	639.606747631125	849.348821223412	43.383705404441	621.166967030348	850.991605605907	45.281669799098	385.725427698409	928.888362330811	50.797231548564	309.106536754036	998.283179443524	128.722804043446	333.233300015610	1133.456369359031	100.900353085620	313.203681644996	655.058993035624	1070.729875069493	236.437508659351	677.826549575697	812.748739813056	207.781898545459	966.060300963510	1127.933977598696	755.197579444830	1178.350424228686	1168.350313991772	626.950043467074	
20	44.262071428571	781.219479611421	954.789972528873	353.723744924084	592.493024830346	1012.681362270191	538.765224835085	762.794760956596	1418.135419268050	318.521188386716	885.245609514753	1348.416563807010	464.651767797875	836.700161157558	1438.893952950072	644.092350285032	795.510325213280	1486.987615269921	462.357721291530	825.179771969662	932.915794440881	626.109361447943	839.192332440818	725.612504851533	592.188281541026	750.938191161311	626.612773254627	660.218734401088	808.519575592781	566.280071924155	571.597677396831	796.314430934131	477.573961745468	576.958138091191	857.946842512262	777.803340784953	388.387656888452	815.035196448779	652.200652037532	308.256953969409	911.599159376121	591.126565271377	378.031815021656	939.674903282794	525.287618380238	372.508878126242	921.889145528307	452.403776114813	358.022433155510	856.747915365656	324.809073673176	299.473157209748	939.415338022547	223.224917205411	357.125744904002	758.721050939441	392.375496870264	586.609202492549	680.474152140738	297.601413883629	653.353708674270	703.262772655408	199.604901922995	587.546160206903	549.874672686522	43.197782529253	567.535552680129	722.387558701644	96.119294225257	595.652264026839	635.640266237071	36.403693348182	639.544623470770	843.257456454141	43.094842734374	621.235448408264	852.359360070000	42.340160791941	387.542382234578	929.548743217222	47.982133797768	310.305176197784	998.702529201770	126.048454082360	333.718822041908	1133.752476171531	98.702425547801	312.792417621337	655.096949371970	1069.990172123876	235.700941503069	675.373942784379	811.816401399512	207.546475821771	969.062705034910	1127.624767793194	751.003243039421	1179.453302256012	1170.617050462415	620.559632928953	
21	44.274285714286	783.370372282079	953.376519922449	352.537387235185	594.675056186151	1011.288875870418	537.203047670042	763.535449453181	1417.167800881073	316.883887691142	886.014684792218	1347.851052131588	463.194507031758	836.879598510640	1438.108345253304	642.571729025383	795.792502386554	1486.151424968426	460.796135122180	827.172994158521	932.049001837068	624.907351796035	839.714437664701	724.226547938717	591.170159907801	750.531609481700	625.554019198861	659.169008842435	807.715384479771	564.727802578996	570.811833209325	794.555154773508	476.039484093588	576.049803142008	858.646125197823	774.328735743027	386.454419671088	812.654298779025	649.074925273446	307.371726661140	909.063131130015	587.260101043300	376.303517968655	935.664883666753	521.406651705428	371.277812192760	918.499963272747	448.968889261472	356.881033036253	853.398087749769	320.815260474768	300.135450005157	937.386212739481	220.133413549950	357.387095866585	756.121064699350	391.198851323087	585.812218993381	676.944487976843	297.302217324686	652.777367881428	698.489703419242	198.981131825216	587.116338078385	543.778534437767	43.257861671753	567.510812213096	716.331856690753	96.014761091894	595.541002133041	629.524414840152	36.379383470221	639.476691959016	837.162732955854	42.809587264552	621.296475307274	851.303239387953	40.105470353617	389.610835138905	927.635815992399	45.336796581404	311.587531461020	997.271591212667	122.790313102987	334.304879999774	1131.850447957802	94.702564600373	312.157757789372	655.410393713288	1069.166621051554	234.707794949852	673.598366509867	810.842518297162	207.006183210625	971.330820298073	1127.035131346719	747.127344352261	1180.070462642191	1171.979712331746	614.715981179970	
22	44.286500000000	785.684676748218	951.872683728581	351.232923437050	596.911074319116	1009.868574902595	535.434313423765	764.317965092974	1416.182489044337	315.078390593569	886.829312089421	1347.280040069102	461.591496710272	837.028504166780	1437.275837915885	640.928683328504	796.064115087137	1485.292754646013	459.076942893474	829.335380915501	931.161356910356	623.560041733047	840.331751167009	722.772192170795	590.127213815332	750.129752900643	624.497457544473	658.047123142513	806.923049848940	563.143730840828	569.985699332751	792.738092521969	474.463562012015	575.033438074718	859.690075742258	771.039619093909	384.326582476347	810.440167795847	645.987921596923	306.635392149241	907.124269517692	583.681526673060	374.355302892486	932.099239918279	517.550748599342	369.989404229789	915.326706579632	445.474977523193	355.778635727399	849.651536673293	317.080534555742	300.869824760194	934.481719684684	216.918750064924	357.680245246415	753.469649313590	390.021888333730	584.954566200971	673.399054684026	297.035543265159	652.188432648216	693.698019604923	198.393484240395	586.684222259223	537.685279665873	43.356045848050	567.500141251725	710.287578388542	95.926913155260	595.431414742869	623.418896560938	36.368504097361	639.409489877934	831.068558163566	42.516469707723	621.351094791326	848.291782267445	38.485666987553	391.686626572910	923.736270135496	42.899023591140	312.806849546726	994.466013538129	119.095027217713	334.974664187550	1128.323456639507	89.225892899539	311.447035060507	655.979787409285	1068.273801956155	233.462782885129	672.510255932498	809.834325418556	206.153855793811	972.891353481212	1126.141277948065	743.603173685334	1180.255548603599	1172.397101691842	609.445410651564	
